<svg width="521" height="521" viewBox="0 0 521 521" fill="none" xmlns="http://www.w3.org/2000/svg">
<mask id="mask0_15_18" style="mask-type:luminance" maskUnits="userSpaceOnUse" x="-1" y="0" width="522" height="521">
<path d="M520.979 0H-0.00195312V520.981H520.979V0Z" fill="#737373"/>
</mask>
<g mask="url(#mask0_15_18)">
<path d="M256.236 84.1586C300.737 48.5468 344.748 35.4878 375.907 53.4798C403.755 69.5625 416.22 106.897 410.983 158.626C410.541 163.04 409.923 167.533 409.237 172.076L404.958 195.173C404.942 195.165 404.922 195.158 404.903 195.151C404.888 195.217 404.874 195.284 404.856 195.35L383.213 187.378C383.215 187.368 383.201 187.355 383.201 187.346C368.435 182.742 353.383 179.11 338.141 176.476L337.921 176.423L307.496 172.358L307.469 172.355C307.435 172.307 307.392 172.274 307.355 172.226C290.371 170.482 273.308 169.614 256.236 169.624C239.125 169.613 222.028 170.504 205.013 172.293C195.058 186.123 185.814 200.45 177.316 215.22C168.774 230.009 161.012 245.235 154.06 260.833C161.012 276.433 168.774 291.657 177.316 306.446C185.827 321.275 195.1 335.655 205.097 349.526C205.112 349.526 205.127 349.528 205.143 349.531L205.118 349.572L205.105 349.594L205.121 349.617L224.164 373.924L224.295 374.06C234.151 385.893 244.765 397.071 256.073 407.525L256.254 407.715L273.908 422.255C273.85 422.312 273.791 422.366 273.732 422.421C273.754 422.441 273.779 422.459 273.804 422.477L254.902 438.548L254.868 438.575C224.27 462.731 193.989 476.229 167.993 476.229C156.988 476.392 146.138 473.617 136.564 468.188C108.714 452.105 96.2509 414.769 101.486 363.04C101.942 358.496 102.567 353.866 103.293 349.189C50.2129 328.408 16.875 296.835 16.875 260.833C16.875 228.668 42.9676 199.172 90.3565 177.869C94.5282 175.993 98.8689 174.202 103.293 172.513C102.567 167.817 101.942 163.17 101.486 158.626C96.2509 106.897 108.714 69.5625 136.564 53.4798C167.723 35.4878 211.734 48.5468 256.236 84.1586ZM125.181 356.738C124.792 359.645 124.438 362.501 124.168 365.339C119.912 406.802 128.558 437.035 147.72 448.307L147.997 448.438C168.415 460.23 202.04 450.855 238.84 422.421C222.034 406.596 206.61 389.363 192.735 370.914C169.853 368.128 147.253 363.387 125.181 356.738ZM142.39 289.62C137.05 304.219 132.667 319.153 129.268 334.32C143.852 338.857 158.714 342.443 173.762 345.059L174.478 345.218C168.719 336.45 163.062 327.226 157.59 317.866C152.118 308.507 147.085 299.064 142.39 289.62ZM107.667 195.285C104.965 196.412 102.314 197.538 99.7127 198.664C61.6294 215.845 39.6744 238.501 39.6744 260.833C39.6744 284.401 64.6187 308.863 107.65 326.517C112.957 304.049 120.166 282.077 129.2 260.833C120.183 239.633 112.979 217.705 107.667 195.285ZM174.393 176.567C159.143 179.234 144.08 182.885 129.302 187.498C132.644 202.373 136.933 217.019 142.141 231.347L142.305 232.029C147.069 222.569 152.05 213.243 157.505 203.8C162.96 194.357 168.618 185.302 174.393 176.567ZM168.213 68.2619C161.137 68.0967 154.144 69.8105 147.946 73.2284C128.702 84.352 119.963 114.466 124.118 155.842L124.117 156.329C124.387 159.166 124.741 162.022 125.13 164.911C147.21 158.308 169.808 153.584 192.684 150.788C206.566 132.333 222.002 115.1 238.824 99.2786C212.427 78.8713 187.651 68.2619 168.213 68.2619ZM364.575 73.2116C358.427 69.8151 351.494 68.101 344.474 68.2412L344.291 68.2449C324.854 68.2449 300.078 78.8543 273.682 99.2616C290.491 115.072 305.915 132.293 319.786 150.737C342.669 153.52 365.268 158.262 387.34 164.911C387.745 162.022 388.083 159.15 388.37 156.312C392.592 114.669 383.912 84.3783 364.575 73.2116ZM256.152 113.96C244.727 124.506 234.006 135.793 224.062 147.747C234.602 147.071 245.297 146.733 256.152 146.733C267.095 146.733 277.818 147.105 288.324 147.747C278.353 135.791 267.605 124.503 256.152 113.96Z" fill="currentColor"/>
<path d="M256.234 84.1586C300.737 48.5468 344.747 35.4878 375.906 53.4798C403.756 69.5625 416.219 106.897 410.984 158.626C410.542 163.04 409.921 167.533 409.237 172.076L404.959 195.173L404.904 195.151C404.888 195.217 404.872 195.284 404.857 195.35L383.213 187.378L383.202 187.346C368.435 182.742 353.381 179.11 338.142 176.476L337.922 176.423L307.494 172.358L307.469 172.354C307.435 172.307 307.392 172.274 307.356 172.226C290.372 170.482 273.309 169.614 256.234 169.624C239.126 169.613 222.028 170.504 205.013 172.293C195.058 186.123 185.814 200.45 177.316 215.22C168.774 230.009 161.012 245.235 154.06 260.833C161.012 276.433 168.774 291.657 177.316 306.446C185.827 321.275 195.1 335.655 205.097 349.526L205.143 349.531L205.118 349.572L205.105 349.594L205.121 349.617L224.164 373.924L224.295 374.06C234.151 385.893 244.766 397.071 256.071 407.525L256.255 407.715L273.909 422.255C273.85 422.312 273.791 422.366 273.732 422.421L273.803 422.477L254.902 438.548L254.868 438.575C224.27 462.733 193.989 476.229 167.993 476.229C156.988 476.392 146.138 473.617 136.564 468.188C108.714 452.105 96.2507 414.769 101.486 363.04C101.942 358.496 102.567 353.866 103.293 349.189C50.2129 328.408 16.875 296.835 16.875 260.833C16.875 228.668 42.9677 199.172 90.3566 177.869C94.5283 175.993 98.8689 174.202 103.293 172.513C102.567 167.817 101.942 163.17 101.486 158.626C96.2507 106.897 108.714 69.5625 136.564 53.4798C167.723 35.4878 211.734 48.5468 256.234 84.1586ZM125.181 356.738C124.793 359.645 124.438 362.501 124.168 365.339C119.912 406.802 128.558 437.035 147.72 448.307L147.997 448.438C168.415 460.23 202.04 450.855 238.84 422.421C222.034 406.596 206.61 389.363 192.735 370.914C169.853 368.128 147.253 363.387 125.181 356.738ZM142.39 289.62C137.05 304.219 132.667 319.153 129.268 334.32C143.852 338.857 158.714 342.443 173.762 345.059L174.478 345.218C168.719 336.45 163.062 327.226 157.59 317.866C152.118 308.507 147.085 299.064 142.39 289.62ZM107.667 195.285C104.965 196.412 102.314 197.538 99.7127 198.664C61.6294 215.845 39.6744 238.501 39.6744 260.833C39.6744 284.401 64.6187 308.863 107.65 326.517C112.957 304.049 120.166 282.077 129.2 260.833C120.183 239.633 112.979 217.705 107.667 195.285ZM174.393 176.567C159.143 179.234 144.08 182.885 129.302 187.498C132.644 202.373 136.933 217.019 142.141 231.347L142.305 232.029C147.069 222.569 152.05 213.243 157.505 203.8C162.96 194.357 168.618 185.302 174.393 176.567ZM168.213 68.2619C161.137 68.0967 154.144 69.8105 147.946 73.2284C128.702 84.352 119.963 114.466 124.118 155.842L124.117 156.329C124.387 159.166 124.741 162.022 125.13 164.911C147.21 158.308 169.808 153.584 192.684 150.788C206.566 132.333 222.002 115.1 238.822 99.2786C212.427 78.8713 187.651 68.2619 168.213 68.2619ZM364.576 73.2116C358.428 69.8151 351.495 68.101 344.475 68.2412L344.291 68.2449C324.852 68.2449 300.078 78.8543 273.68 99.2616C290.49 115.072 305.915 132.293 319.787 150.737C342.667 153.52 365.269 158.262 387.34 164.911C387.746 162.022 388.083 159.15 388.371 156.312C392.593 114.669 383.913 84.3783 364.576 73.2116ZM256.15 113.96C244.725 124.506 234.006 135.793 224.062 147.747C234.6 147.071 245.298 146.733 256.15 146.733C267.096 146.733 277.819 147.105 288.324 147.747C278.351 135.791 267.605 124.503 256.15 113.96Z" fill="currentColor"/>
</g>
<path fill-rule="evenodd" clip-rule="evenodd" d="M267.001 320C267.001 269.19 308.191 228 359.001 228C409.812 228 451.001 269.19 451.001 320C451.001 370.811 409.812 412 359.001 412C308.191 412 267.001 370.811 267.001 320ZM318.35 294.326C318.35 286.054 325.055 279.349 333.327 279.349C341.598 279.349 348.303 286.054 348.303 294.326C348.303 302.597 341.598 309.302 333.327 309.302C325.055 309.302 318.35 302.597 318.35 294.326ZM369.699 345.674C369.699 337.403 376.404 330.698 384.675 330.698C392.947 330.698 399.652 337.403 399.652 345.674C399.652 353.946 392.947 360.651 384.675 360.651C376.404 360.651 369.699 353.946 369.699 345.674ZM330.821 360.285L399.286 291.82L387.183 279.717L318.718 348.182L330.821 360.285Z" fill="currentColor"/>
</svg>
